<svg xmlns="http://www.w3.org/2000/svg" version="1.1" xmlns:xlink="http://www.w3.org/1999/xlink"  width="100%" height="60%" viewBox="125 0 800 600"><rect width="1000" height="400" x="0" y="0" fill="none"/><g><rect width="333.3333333333333" height="333.3333333333333" rx="13.333333333333334" ry="13.333333333333334" y="167.18957049194722" fill="#088BD5" transform="matrix(0.8622631460395049,0,0,0.8622631460395049,0,12.128070051702622)" x="144.96734619140625"/><path d="M267.3869679882011 349.92653267018176L226.8051036049414 349.0027696661671L226.8051036049414 393.0248548919638Q226.8051036049414 397.1658614616842 230.91425627797162 397.6118160153464L230.91425627797162 397.6118160153464L252.03338978354554 400.38310502739006L252.03338978354554 408.8562415469717L190.55536917154302 408.8562415469717L190.55536917154302 400.38310502739006L203.87029798802854 397.8347932921775Q208.20242793788987 397.1658614616842 208.20242793788987 392.8018776151327L208.20242793788987 392.8018776151327L208.20242793788987 294.8829991895908Q208.20242793788987 290.2960380662083 203.87029798802854 289.59525233902485L203.87029798802854 289.59525233902485L190.55536917154302 286.85581722367135L190.55536917154302 278.35082680739947L283.21835464320895 278.35082680739947Q283.66430919687116 286.15503149648794 283.66430919687116 293.9592361855763Q283.66430919687116 301.76344087466475 282.99537736637785 310.4595546710775L282.99537736637785 310.4595546710775L273.5666239460915 310.4595546710775L269.9034258267235 294.4051907392385Q268.7566855458778 290.96496989670163 265.0934874265098 289.59525233902485L265.0934874265098 289.59525233902485Q262.099221137635 288.6714893350103 257.5122600142525 288.2255347813481Q252.92529889086993 287.74772633099576 247.66940593699405 287.74772633099576L247.66940593699405 287.74772633099576L226.8051036049414 287.74772633099576L226.8051036049414 338.45912986172533L267.3869679882011 337.0575584073584L267.3869679882011 349.92653267018176ZM328.38718014985125 261.62753104506726L328.38718014985125 393.5026633423161Q328.38718014985125 398.0896244656987 332.75116399640274 398.758556296192L332.75116399640274 398.758556296192L344.9193525320426 400.60608230422105L344.9193525320426 408.8562415469717L293.76199444765086 408.8562415469717L293.76199444765086 400.38310502739006L305.93018298329076 398.758556296192Q310.5171441066733 398.0896244656987 310.5171441066733 393.7256406191472L310.5171441066733 393.7256406191472L310.5171441066733 278.12784953056837Q310.5171441066733 273.763865684017 305.93018298329076 273.0949338535237L305.93018298329076 273.0949338535237L293.31603989398866 271.24740784549454L293.31603989398866 263.6661804332373Q300.4194588558936 261.62753104506726 309.4659655158981 260.353375177461Q318.54432607259287 259.0792193098547 325.6477450344978 258.8562420330236L325.6477450344978 258.8562420330236L328.38718014985125 261.62753104506726ZM386.870934472979 341.1985649770788L385.9471714689645 335.24188629601946Q388.9414377578392 329.73116216862235 394.3247462984757 324.1248763511548Q399.7080548391122 318.486736636997 406.71591211094665 314.82353851762895Q413.72376938278114 311.1603403982609 421.0501656215172 311.1603403982609L421.0501656215172 311.1603403982609Q423.56662346003964 311.1603403982609 426.91128261250606 311.8292722287543Q430.22408786828237 312.5300579559377 432.5175684299736 313.6767982367833L432.5175684299736 313.6767982367833Q432.96352298363587 320.55723992185716 432.39015284321306 329.3807693050306Q431.8167827027902 338.204298688204 430.22408786828237 345.56254882363027L430.22408786828237 345.56254882363027L421.7509513487006 345.56254882363027L419.20263961348815 332.4705972839758Q418.53370778299484 329.73116216862235 417.25955191538856 328.5844218877767Q416.0172499444725 327.4376816069311 413.46893820925993 327.4376816069311L413.46893820925993 327.4376816069311Q406.8433276977073 327.4376816069311 399.7080548391122 330.7504868627073Q392.6046358772072 334.09514601517384 386.870934472979 341.1985649770788L386.870934472979 341.1985649770788ZM387.57172020016253 314.12275279044553L390.0881780386849 335.01890901918836L390.0881780386849 393.5026633423161Q390.0881780386849 398.3126017425298 394.89811643889857 398.758556296192L394.89811643889857 398.758556296192L411.653266097921 400.60608230422105L411.653266097921 408.8562415469717L357.5334956213446 408.8562415469717L357.5334956213446 400.38310502739006L367.5993269754342 398.758556296192Q372.1862880988168 398.0896244656987 372.1862880988168 393.5026633423161L372.1862880988168 393.5026633423161L372.1862880988168 331.3238570031302Q372.1862880988168 326.2909413260854 367.5993269754342 325.59015559890196L367.5993269754342 325.59015559890196L356.1319241669778 324.22043804122524L356.1319241669778 315.9702787984747Q362.7893885752205 313.89977551361443 370.46617767754833 312.7530352327688Q378.17482067656624 311.6062949519232 384.80043118811886 311.38331767509203L384.80043118811886 311.38331767509203L387.57172020016253 314.12275279044553Z " fill="white" transform="matrix(0.8622631460395049,0,0,0.8622631460395049,0,12.128070051702622)"/><path d="M620.3664938853203 408.41699907672984L620.3664938853203 408.41699907672984Q590.5610147163513 408.41699907672984 576.0975137722517 391.5690597991127Q561.634012828152 374.7524947100945 561.634012828152 344.4764027121418L561.634012828152 344.4764027121418Q561.634012828152 321.66736760073087 569.3206890348861 306.5136345074551Q577.0073652416202 291.39127560277825 590.7806340365437 283.70459939604416Q604.5539028314672 276.0179231893101 623.5352869338107 276.0179231893101L623.5352869338107 276.0179231893101Q631.4415824607372 276.0179231893101 641.2617034921974 277.4925100534591Q651.0818245236576 278.9670969176081 659.4587328795678 282.1358899660985L659.4587328795678 282.1358899660985Q659.6783521997604 289.3519533438489 659.2077393707766 297.4778681909677Q658.7685007303917 305.6351572266856 657.6390299408308 313.7610720738044L657.6390299408308 313.7610720738044L647.0345541943977 313.7610720738044L643.1755289967311 295.21892661184586Q642.516671036154 293.4305978617077 641.6068195667855 292.0815077519544Q640.6969680974169 290.7010434536022 638.8772651586798 289.57157266404124L638.8772651586798 289.57157266404124Q636.1790849391732 288.0028632340955 630.751350311561 286.6537731243422Q625.3236156839488 285.3046830145888 619.4566424159518 285.3046830145888L619.4566424159518 285.3046830145888Q602.2949612523455 285.3046830145888 592.3493434664895 298.60733898052865Q582.4037256806336 311.9413691350674 582.4037256806336 341.52722898384394L582.4037256806336 341.52722898384394Q582.4037256806336 358.72028433604913 586.1372541239043 371.70919841599977Q589.8707825671752 384.6981124959504 598.1221941686897 391.9141758737008Q606.3736057702043 399.1302392514512 619.6762617361442 399.1302392514512L619.6762617361442 399.1302392514512Q625.1039963637563 399.1302392514512 630.406234236973 398.00076846189023Q635.7398462987885 396.87129767232926 639.3478779876637 394.1731174528226L639.3478779876637 394.1731174528226Q640.6969680974169 393.04364666326177 641.7009421325822 391.7886791193052Q642.7362903563464 390.5650857639475 643.3951483169236 388.525763505018L643.3951483169236 388.525763505018L649.0425022647282 371.58370166160415L659.6783521997604 372.49355313097266Q659.8979715199528 379.27037786833824 659.3332361251723 386.95705407507234Q658.7685007303917 394.61235609320744 657.6390299408308 401.8597936595567L657.6390299408308 401.8597936595567Q650.4229665630805 404.7775931992558 640.3518520228289 406.5972961379928Q630.3121116711761 408.41699907672984 620.3664938853203 408.41699907672984ZM720.8893941562428 406.5972961379928L675.4909432536133 406.5972961379928L675.4909432536133 398.25176197068157L685.4365610394693 396.6516783521369Q689.954444197713 395.99282039155975 689.954444197713 391.69455655350833L689.954444197713 391.69455655350833L689.954444197713 277.6180068078547Q689.954444197713 273.31974296980343 685.4365610394693 272.62951082062733L685.4365610394693 272.62951082062733L673.4516209946839 270.8411820704892L673.4516209946839 263.3741251839475Q680.4480650522419 261.33480292501804 689.1387152941411 260.2053321354572Q697.8607397246394 259.0758613458962 704.8571837821974 258.8562420257038L704.8571837821974 258.8562420257038L707.555364001704 261.5857964338094L707.555364001704 391.474937233316Q707.555364001704 395.7418268827684 712.0732471599476 396.6516783521369L712.0732471599476 396.6516783521369L720.8893941562428 398.25176197068157L720.8893941562428 406.5972961379928ZM782.3200554329176 406.5972961379928L736.921604530288 406.5972961379928L736.921604530288 398.25176197068157L745.7377515265832 396.6516783521369Q747.5574544653202 396.2124397117521 748.9065445750734 395.0829689221911Q750.2556346848269 393.9534981326303 750.2556346848269 391.474937233316L750.2556346848269 391.474937233316L750.2556346848269 349.6845180195617Q750.2556346848269 336.13086854483055 746.522106241556 329.35404380746496Q742.7885777982851 322.5772190700995 731.9644827316597 322.5772190700995L731.9644827316597 322.5772190700995Q724.058187204733 322.5772190700995 716.3715109979989 325.71463792999094Q708.6848347912648 328.8834309784813 702.5982422030756 335.0013977552697L702.5982422030756 335.0013977552697L703.2571001636527 327.97357950911277Q710.5045377300021 318.0593359118557 719.9795426868743 314.20031071418924Q729.4859218323454 310.3726597051216 739.6511589383938 310.3726597051216L739.6511589383938 310.3726597051216Q755.9029886326314 310.3726597051216 761.7699619006285 319.84766466199386Q767.6369351686255 329.35404380746496 767.6369351686255 346.5157249710713L767.6369351686255 346.5157249710713L767.6369351686255 391.474937233316Q767.6369351686255 395.99282039155975 772.1548183268692 396.6516783521369L772.1548183268692 396.6516783521369L782.3200554329176 398.25176197068157L782.3200554329176 406.5972961379928ZM823.8908553264796 339.95851955389816L822.9810038571111 334.0915462859011Q825.930177585409 328.6638116582889 831.2324154586256 323.1419544648799Q836.534653331842 317.58872308287204 843.4369748236034 313.9806913939968Q850.3392963153644 310.3726597051216 857.555359693115 310.3726597051216L857.555359693115 310.3726597051216Q860.0339205924292 310.3726597051216 863.3282103953152 311.03151766569886Q866.5911260096022 311.72174981487495 868.8500675887242 312.8512206044359L868.8500675887242 312.8512206044359Q869.2893062291089 319.6280453418015 868.7245708343285 328.31869558370084Q868.159835439548 337.0093458256002 866.5911260096022 344.25678339194945L866.5911260096022 344.25678339194945L858.2455918422911 344.25678339194945L855.7356567543779 331.36199187779556Q855.0767987938007 328.6638116582889 853.8218312498441 327.53434086872795Q852.5982378944864 326.404870079167 850.0883028065732 326.404870079167L850.0883028065732 326.404870079167Q843.5624715779991 326.404870079167 836.534653331842 329.66778569345416Q829.5382092742841 332.9620754963402 823.8908553264796 339.95851955389816L823.8908553264796 339.95851955389816ZM824.5810874756555 313.29045924482074L827.0596483749698 333.8719269657087L827.0596483749698 391.474937233316Q827.0596483749698 396.2124397117521 831.797150853406 396.6516783521369L831.797150853406 396.6516783521369L848.2999740564351 398.4713812908739L848.2999740564351 406.5972961379928L794.9952276268791 406.5972961379928L794.9952276268791 398.25176197068157L804.909471224136 396.6516783521369Q809.4273543823799 395.99282039155975 809.4273543823799 391.474937233316L809.4273543823799 391.474937233316L809.4273543823799 330.2325210882346Q809.4273543823799 325.2753992896061 804.909471224136 324.58516714043L804.909471224136 324.58516714043L793.6147633285268 323.23607703067665L793.6147633285268 315.11016218355775Q800.1719687457 313.0708399246283 807.7331481980384 311.9413691350674Q815.3257018389759 310.8118983455064 821.85153306755 310.59227902531404L821.85153306755 310.59227902531404L824.5810874756555 313.29045924482074ZM915.3779892809146 313.29045924482074L915.3779892809146 391.474937233316Q915.3779892809146 395.99282039155975 919.8958724391584 396.6516783521369L919.8958724391584 396.6516783521369L929.8414902250142 398.25176197068157L929.8414902250142 406.5972961379928L883.3135685328239 406.5972961379928L883.3135685328239 398.25176197068157L893.2591863186797 396.6516783521369Q897.7770694769235 395.99282039155975 897.7770694769235 391.474937233316L897.7770694769235 391.474937233316L897.7770694769235 329.7932824478498Q897.7770694769235 325.2753992896061 893.4788056388722 324.8361606492213L893.4788056388722 324.8361606492213L881.9644784230704 323.23607703067665L881.9644784230704 315.11016218355775Q889.180541800821 312.8512206044359 897.4319534023355 311.8472465692707Q905.68336500385 310.8118983455064 912.8994283816003 310.59227902531404L912.8994283816003 310.59227902531404L915.3779892809146 313.29045924482074ZM916.727079390668 285.3046830145888L916.727079390668 285.3046830145888Q916.727079390668 290.48142413340975 913.3386670219852 293.7757139362958Q909.9502546533024 297.03862955058287 904.5538942142891 297.03862955058287L904.5538942142891 297.03862955058287Q899.1261595866767 297.03862955058287 895.737747217994 293.7757139362958Q892.3493348493112 290.48142413340975 892.3493348493112 285.3046830145888L892.3493348493112 285.3046830145888Q892.3493348493112 279.8769483869766 895.737747217994 276.5826585840906Q899.1261595866767 273.31974296980343 904.5538942142891 273.31974296980343L904.5538942142891 273.31974296980343Q909.9502546533024 273.31974296980343 913.3386670219852 276.5826585840906Q916.727079390668 279.8769483869766 916.727079390668 285.3046830145888ZM946.3443134280433 401.8597936595567L946.3443134280433 401.8597936595567Q945.4344619586748 395.0829689221911 945.6540812788671 388.6512602594136Q945.8737005990595 382.18817740803723 946.5639327482356 376.5408234602326L946.5639327482356 376.5408234602326L956.0389377051079 376.5408234602326L959.4273500737906 388.9650021454028Q960.5568208633515 393.9534981326303 963.2863752714572 395.7418268827684L963.2863752714572 395.7418268827684Q965.545316850579 397.1222911811206 969.9377032544271 398.6910006110664Q974.3300896582753 400.25971004101206 980.4480564350636 400.25971004101206L980.4480564350636 400.25971004101206Q989.0132099225673 400.25971004101206 993.4369705150143 396.30656227754884Q997.8293569188622 392.3534145140856 997.8293569188622 385.57658977672L997.8293569188622 385.57658977672Q997.8293569188622 380.3998486578991 994.9115573791632 377.10555885501304Q991.9623836508651 373.842643240726 986.3150297030606 371.14446302121934Q980.6676757552559 368.4149086131137 972.5417609081371 365.0264962444309L972.5417609081371 365.0264962444309Q961.4666723327202 360.50861308618727 954.4702282751623 354.7671365725859Q947.4737842176041 348.99428587038557 947.4737842176041 337.69957797477633L947.4737842176041 337.69957797477633Q947.4737842176041 324.14592850004516 957.0742859288721 317.24360700828396Q966.67478764014 310.3726597051216 982.0167658650091 310.3726597051216L982.0167658650091 310.3726597051216Q989.2642034313585 310.3726597051216 996.9195054494937 311.9413691350674Q1004.6061816562278 313.5414527536121 1009.8142969636476 315.8003943327339L1009.8142969636476 315.8003943327339Q1010.03391628384 321.88698692092333 1009.5946776434553 327.97357950911277Q1009.1240648144715 334.0915462859011 1007.9945940249106 339.95851955389816L1007.9945940249106 339.95851955389816L999.1784470286154 339.95851955389816L996.4802668091088 328.6638116582889Q995.7900346599329 326.404870079167 994.9115573791632 324.8361606492213Q994.0017059097947 323.23607703067665 991.9623836508651 322.1066062411157L991.9623836508651 322.1066062411157Q989.9230613919358 320.97713545155483 987.0993844180334 320.0672839821863Q984.2757074441311 319.1888067014167 980.4480564350636 318.93781319262536L980.4480564350636 318.93781319262536Q973.2006188687142 318.7181938724329 968.4631163902782 322.1066062411157Q963.725613911842 325.4950186097985 963.725613911842 332.74245617614775L963.725613911842 332.74245617614775Q963.725613911842 338.13881661516115 966.8944069603324 341.52722898384394Q970.0632000088228 344.9156413525266 974.8948250530557 347.0804603658518Q979.7578242858874 349.2139051905779 985.1855589134998 351.2532274495074L985.1855589134998 351.2532274495074Q992.8722351202337 354.20240117780537 999.6490598575992 357.8104328666806Q1006.4258845949648 361.4184645555558 1010.5986516786206 367.0658185033604Q1014.7714187622762 372.713172451165 1014.7714187622762 381.3097001272676L1014.7714187622762 381.3097001272676Q1014.7714187622762 394.3927367730151 1004.6061816562278 401.64017433936436Q994.4409445501794 408.85623771711465 978.1891148559416 408.85623771711465L978.1891148559416 408.85623771711465Q968.4631163902782 408.85623771711465 960.1175822229668 406.5972961379928Q951.7406738670566 404.338354558871 946.3443134280433 401.8597936595567Z " fill="#088BD5" transform="matrix(0.8622631460395049,0,0,0.8622631460395049,0,12.128070051702622)"/></g></svg>